<svg xmlns="http://www.w3.org/2000/svg" viewBox="0 0 181.97 132.81"><defs><style>.cls-1{fill:#fff;}</style></defs><title>bookie-logo</title><g id="Layer_2" data-name="Layer 2"><g id="Layer_1-2" data-name="Layer 1"><path class="cls-1" d="M161,104.28V0c-33.07.07-55.06,3.5-64,5.22v104C108.73,107.18,130.35,104.34,161,104.28Z"/><path class="cls-1" d="M85,109.26V5.22C76,3.5,54.05.07,21,0V104.28C51.62,104.34,73.24,107.18,85,109.26Z"/><path class="cls-1" d="M174,23.85h-1v92.43H162c-37.38,0-60.83,4.21-69.18,6l-.45.09a6.25,6.25,0,0,1-1.32.14h-.11a6.32,6.32,0,0,1-1.32-.14l-.45-.09c-8.35-1.81-31.8-6-69.17-6H9V23.85H0V127.6H18.25A469.57,469.57,0,0,1,77.87,131v1.82h26.24V131a469.43,469.43,0,0,1,59.62-3.39H182V23.85Z"/></g></g></svg>