<svg xmlns="http://www.w3.org/2000/svg" viewBox="0 0 42.33 19.71"><defs><style>.cls-1{fill:#f0c808;}</style></defs><title>bitgora-wordmark</title><g id="Layer_2" data-name="Layer 2"><g id="Layer_1-2" data-name="Layer 1"><rect class="cls-1" x="15.02" width="27.3" height="1.19" rx="0.59"/><rect class="cls-1" x="17.79" y="1.96" width="1.19" height="1.23"/><rect class="cls-1" x="38.37" y="1.96" width="1.19" height="1.23"/><path class="cls-1" d="M15,4.6V15.24a1.44,1.44,0,0,0,1.44,1.44H36.69l3.49,3v-3h.71a1.44,1.44,0,0,0,1.44-1.44V4.6a1.45,1.45,0,0,0-1.44-1.44H16.46A1.45,1.45,0,0,0,15,4.6Z"/><path d="M4.84,9.92a2.08,2.08,0,0,0-.5-.24,1.7,1.7,0,0,0,.35-.19,1.76,1.76,0,0,0,.54-.64A1.68,1.68,0,0,0,5.44,8a2.07,2.07,0,0,0-.33-1.2,1.88,1.88,0,0,0-.92-.73,3.83,3.83,0,0,0-1.47-.25l-1.28,0-1.36,0L0,6V14l.08.09,1.41,0,1.4,0a4,4,0,0,0,1.61-.29,2.06,2.06,0,0,0,1-.81,2.43,2.43,0,0,0,.33-1.29,2.18,2.18,0,0,0-.27-1.07A2.32,2.32,0,0,0,4.84,9.92ZM2.15,7h.51a1.34,1.34,0,0,1,.73.16.89.89,0,0,1,.36.41,1.54,1.54,0,0,1,.1.51,1.35,1.35,0,0,1-.11.52A.85.85,0,0,1,3.38,9a1.36,1.36,0,0,1-.73.17H1.59V7Zm2,5.11a1.35,1.35,0,0,1-.2.42,1.07,1.07,0,0,1-.42.32,1.73,1.73,0,0,1-.7.12H1.59V10.38H2.77a1.47,1.47,0,0,1,.87.22,1.16,1.16,0,0,1,.43.51,1.59,1.59,0,0,1,.12.59A1.71,1.71,0,0,1,4.13,12.13Z"/><path d="M7.48,7.24a2.09,2.09,0,0,0,.43,0,2.27,2.27,0,0,0,.43,0,1,1,0,0,0,.35-.12,1.52,1.52,0,0,0,.12-.62,1.8,1.8,0,0,0,0-.31,1.4,1.4,0,0,0-.09-.31,1,1,0,0,0-.35-.12,2.22,2.22,0,0,0-.43,0,2.09,2.09,0,0,0-.43,0,1.18,1.18,0,0,0-.35.12A1.44,1.44,0,0,0,7,6.49a1.38,1.38,0,0,0,.13.62A1.07,1.07,0,0,0,7.48,7.24Z"/><path d="M7.79,8.1H7.17l-.5,0a1.5,1.5,0,0,0-.06.29,2.62,2.62,0,0,0,0,.28,1.9,1.9,0,0,0,.07.54h.16a.49.49,0,0,1,.42.17.87.87,0,0,1,.12.49V14.1l.38,0,.41,0,.41,0,.37,0V9.35a1.3,1.3,0,0,0-.31-.92A1.09,1.09,0,0,0,7.79,8.1Z"/><path d="M13.73,9.26a2.15,2.15,0,0,0,.07-.58,2.08,2.08,0,0,0-.07-.55l-1.45,0V6.4l-.09-.09h-.6a.84.84,0,0,0-.66.23,1.16,1.16,0,0,0-.18.74v.86H9.83a2.57,2.57,0,0,0-.06.55,2.65,2.65,0,0,0,.06.58l.92,0v3.45a1.47,1.47,0,0,0,.35,1.1,1.46,1.46,0,0,0,1.07.36l.75,0,.71-.07a.88.88,0,0,0,0-.17,1.09,1.09,0,0,0,0-.18,2.37,2.37,0,0,0-.12-.76h-.75a.51.51,0,0,1-.4-.14.61.61,0,0,1-.11-.4V9.24Z"/><path d="M22.33,9.54H20.46a2.66,2.66,0,0,0-.08.33,1.42,1.42,0,0,0,0,.34.73.73,0,0,0,.1.42.48.48,0,0,0,.27.21,1.27,1.27,0,0,0,.41.06h.8c0,.26,0,.53,0,.8v1.05l-.12,0a4.36,4.36,0,0,1-1.12.13A1.94,1.94,0,0,1,19,12.2a3.54,3.54,0,0,1-.55-2.2,4.65,4.65,0,0,1,.27-1.73,2,2,0,0,1,.75-.95,2,2,0,0,1,1.1-.3,3.1,3.1,0,0,1,1.07.19,3.93,3.93,0,0,1,1,.5,1.85,1.85,0,0,0,.47-.49,1.36,1.36,0,0,0,.27-.68,5.2,5.2,0,0,0-1.32-.63,5,5,0,0,0-1.54-.24,3.78,3.78,0,0,0-1.37.25,3.57,3.57,0,0,0-2,2.13A5.41,5.41,0,0,0,16.83,10a6.91,6.91,0,0,0,.2,1.68A3.9,3.9,0,0,0,17.66,13a2.91,2.91,0,0,0,1.1.89,4,4,0,0,0,1.63.31,10.76,10.76,0,0,0,1.15-.07,9.24,9.24,0,0,0,1-.19,7.88,7.88,0,0,0,.84-.25V10.56a1.08,1.08,0,0,0-.24-.74A1.07,1.07,0,0,0,22.33,9.54Z"/><path d="M28.72,8.3a3,3,0,0,0-3,0,2.58,2.58,0,0,0-.9,1.1,4.22,4.22,0,0,0-.3,1.65,4.26,4.26,0,0,0,.3,1.65,2.39,2.39,0,0,0,.9,1.1,2.58,2.58,0,0,0,1.48.4,2.65,2.65,0,0,0,1.48-.39,2.42,2.42,0,0,0,.9-1.11,4,4,0,0,0,.31-1.65,4.17,4.17,0,0,0-.3-1.64A2.47,2.47,0,0,0,28.72,8.3ZM28.22,12a1.41,1.41,0,0,1-.32.72.79.79,0,0,1-.67.28.82.82,0,0,1-.67-.28,1.49,1.49,0,0,1-.31-.72,4.88,4.88,0,0,1-.08-1,5,5,0,0,1,.08-1,1.49,1.49,0,0,1,.31-.72.82.82,0,0,1,.67-.28.79.79,0,0,1,.67.28,1.41,1.41,0,0,1,.32.72,4.92,4.92,0,0,1,.09,1A4.85,4.85,0,0,1,28.22,12Z"/><path d="M34.21,8a1.56,1.56,0,0,0-.87.23,1.75,1.75,0,0,0-.56.62c0,.09-.06.19-.1.28a2.37,2.37,0,0,0-.25-.53A1.49,1.49,0,0,0,31.35,8a1.26,1.26,0,0,0-.31.36,2,2,0,0,0-.21.46,1.22,1.22,0,0,1,.3.43,1.83,1.83,0,0,1,.15.81v4l.38.05h.82l.37-.05V10.22a2,2,0,0,1,.23-.34,1.16,1.16,0,0,1,.39-.31A1.07,1.07,0,0,1,34,9.45l.28,0a1.34,1.34,0,0,1,.27.07,2.46,2.46,0,0,0,.3-.76,3.52,3.52,0,0,0,.09-.72L34.58,8Z"/><path d="M40.26,12.94a1.68,1.68,0,0,1-.07-.52V10A2.11,2.11,0,0,0,39.9,8.8a1.63,1.63,0,0,0-.74-.66,2.61,2.61,0,0,0-1-.2,5.45,5.45,0,0,0-.87.07c-.31.05-.62.11-.93.19s-.58.18-.83.27a2.86,2.86,0,0,0,.13.62,1.42,1.42,0,0,0,.28.5c.32-.11.63-.2.94-.29a3.19,3.19,0,0,1,.89-.13.85.85,0,0,1,.65.22.92.92,0,0,1,.23.69v.34a2.66,2.66,0,0,0-.28,0l-.72,0a3.2,3.2,0,0,0-1.17.22,1.89,1.89,0,0,0-.85.67,2,2,0,0,0-.32,1.15,2,2,0,0,0,.2.85,1.67,1.67,0,0,0,.59.68,1.76,1.76,0,0,0,1,.27A2.18,2.18,0,0,0,38,14a3,3,0,0,0,.72-.47l.12-.12a1.33,1.33,0,0,0,.38.44,1.46,1.46,0,0,0,.76.26,1.59,1.59,0,0,0,.31-.35,1.45,1.45,0,0,0,.2-.45A.77.77,0,0,1,40.26,12.94ZM37.5,13a.63.63,0,0,1-.49-.2.76.76,0,0,1-.18-.51.9.9,0,0,1,.23-.65.93.93,0,0,1,.71-.25l.67,0,.19,0v1a1.8,1.8,0,0,1-.3.26A1.5,1.5,0,0,1,37.5,13Z"/></g></g></svg>