<svg xmlns="http://www.w3.org/2000/svg" viewBox="0 0 13.52 19.71"><defs><style>.cls-1{fill:#f0c808;}</style></defs><title>bitgora-logo</title><g id="Layer_2" data-name="Layer 2"><g id="Layer_1-2" data-name="Layer 1"><rect class="cls-1" width="13.52" height="1.19" rx="0.59"/><rect class="cls-1" x="1.35" y="1.96" width="1.19" height="1.23"/><rect class="cls-1" x="10.98" y="1.96" width="1.19" height="1.23"/><path class="cls-1" d="M0,4.6V15.24a1.43,1.43,0,0,0,1.44,1.44H7.87l3.5,3v-3h.71a1.44,1.44,0,0,0,1.44-1.44V4.6a1.45,1.45,0,0,0-1.44-1.44H1.44A1.44,1.44,0,0,0,0,4.6Z"/><path d="M9.61,9.82a1.06,1.06,0,0,0-.85-.28H6.9a2.62,2.62,0,0,0-.09.33,2.14,2.14,0,0,0,0,.34.82.82,0,0,0,.09.42.54.54,0,0,0,.28.21,1.22,1.22,0,0,0,.41.06h.8c0,.26,0,.53,0,.8v1.05l-.12,0a4.36,4.36,0,0,1-1.12.13,1.94,1.94,0,0,1-1.62-.71A3.54,3.54,0,0,1,4.92,10a4.65,4.65,0,0,1,.27-1.73,2,2,0,0,1,.75-.95A2.05,2.05,0,0,1,7.05,7a3.14,3.14,0,0,1,1.07.19,3.93,3.93,0,0,1,1,.5,1.85,1.85,0,0,0,.47-.49,1.57,1.57,0,0,0,.27-.68,5.27,5.27,0,0,0-1.33-.63A5,5,0,0,0,7,5.67a3.76,3.76,0,0,0-1.36.25,3.57,3.57,0,0,0-2,2.13A5.41,5.41,0,0,0,3.27,10a6.45,6.45,0,0,0,.2,1.68A3.9,3.9,0,0,0,4.1,13a2.84,2.84,0,0,0,1.1.89,4,4,0,0,0,1.62.31A10.79,10.79,0,0,0,8,14.13a9.68,9.68,0,0,0,1-.19,7,7,0,0,0,.83-.25V10.56A1.08,1.08,0,0,0,9.61,9.82Z"/></g></g></svg>